# xmcd
#
# Track frame offsets:
# 150
# 20751
# 42054
# 58676
# 75571
# 93770
# 110817
# 126783
# 142300
# 161273
# 175474
#
# Disc length: 2596 seconds
#
# Revision: 0
# Processed by: cddbd v1.5.1PL0 Copyright (c) Steve Scherf et al.
# Submitted via: Axialis_AX_CDPlayer 2.6
#
DISCID=920a220b
DTITLE=Dierks Bentley - Modern Day Drifter
DYEAR=1900
DGENRE=
TTITLE0=Lot Of Leavin' Left To Do 
TTITLE1=Come A Little Closer 
TTITLE2=Cab Of My Truck 
TTITLE3=Settle For A Slowdown 
TTITLE4=Domestic, Light And Cold 
TTITLE5=Good Things Happen 
TTITLE6=Easy Street 
TTITLE7=So So Long 
TTITLE8=Modern Day Drifter 
TTITLE9=Good Man Like Me 
TTITLE10=Gonna Get There Someday 
EXTD=
EXTT0=
EXTT1=
EXTT2=
EXTT3=
EXTT4=
EXTT5=
EXTT6=
EXTT7=
EXTT8=
EXTT9=
EXTT10=
PLAYORDER=
